<?xml version="1.0" encoding="UTF-8"?>
<svg width="17px" height="13px" viewBox="0 0 17 13" version="1.1" xmlns="http://www.w3.org/2000/svg" xmlns:xlink="http://www.w3.org/1999/xlink">
    <!-- Generator: Sketch 63.1 (92452) - https://sketch.com -->
    <title>grid</title>
    <desc>Created with Sketch.</desc>
    <g id="--" stroke="none" stroke-width="1" fill="none" fill-rule="evenodd">
        <g id="01-1-2-Dashboard-List-View" transform="translate(-1271.000000, -174.000000)">
            <g id="Switcher" transform="translate(1267.000000, 169.000000)">
                <g id="grid">
                    <polygon id="Stroke-1" stroke-opacity="0.00784313771" stroke="#000000" stroke-width="1.33333335e-11" points="0 0 23.9999985 0 23.9999985 23.9999985 0 23.9999985"></polygon>
                    <path d="M3.99999976,10.9999993 L8.99999946,10.9999993 L8.99999946,4.9999997 L3.99999976,4.9999997 L3.99999976,10.9999993 Z M3.99999976,17.9999989 L8.99999946,17.9999989 L8.99999946,11.9999993 L3.99999976,11.9999993 L3.99999976,17.9999989 Z M9.9999994,17.9999989 L14.9999991,17.9999989 L14.9999991,11.9999993 L9.9999994,11.9999993 L9.9999994,17.9999989 Z M15.999999,17.9999989 L20.9999987,17.9999989 L20.9999987,11.9999993 L15.999999,11.9999993 L15.999999,17.9999989 Z M9.9999994,10.9999993 L14.9999991,10.9999993 L14.9999991,4.9999997 L9.9999994,4.9999997 L9.9999994,10.9999993 Z M15.999999,4.9999997 L15.999999,10.9999993 L20.9999987,10.9999993 L20.9999987,4.9999997 L15.999999,4.9999997 Z" id="Fill-2" fill="#323C46"></path>
                </g>
            </g>
        </g>
    </g>
</svg>