<?xml version="1.0" encoding="UTF-8"?>
<svg width="63px" height="63px" viewBox="0 0 63 63" version="1.1" xmlns="http://www.w3.org/2000/svg" xmlns:xlink="http://www.w3.org/1999/xlink">
    <title>Page 1</title>
    <g id="Design" stroke="none" stroke-width="1" fill="#DAE1E7" fill-rule="evenodd">
        <g id="01-1-3-Dashboard-Loading" transform="translate(-689.000000, -481.000000)" fill="">
            <path d="M720.5,481 C719.672,481 719,481.784 719,482.75 L719,493.25 C719,494.216 719.672,495 720.5,495 C721.328,495 722,494.216 722,493.25 L722,482.75 C722,481.784 721.328,481 720.5,481 Z M699.728773,490 C699.277635,490 698.854694,490.208486 698.516341,490.548155 C697.827886,491.234521 697.827886,492.333174 698.516341,493.019539 L705.95071,500.485226 C706.639165,501.171591 707.795205,501.171591 708.483659,500.485226 C709.172114,499.798861 709.172114,498.646329 708.483659,497.959964 L700.995247,490.548155 C700.654544,490.208486 700.177561,490 699.728773,490 Z M741.271227,490 C740.822439,490 740.345456,490.208486 740.004753,490.548155 L732.516341,497.959964 C731.827886,498.646329 731.827886,499.798861 732.516341,500.485226 C733.204795,501.171591 734.360835,501.171591 735.04929,500.485226 L742.483659,493.019539 C743.172114,492.333174 743.172114,491.234521 742.483659,490.548155 C742.145306,490.208486 741.722365,490 741.271227,490 Z M690.75,511 C689.784,511 689,511.672 689,512.5 C689,513.328 689.784,514 690.75,514 L701.25,514 C702.216,514 703,513.328 703,512.5 C703,511.672 702.216,511 701.25,511 L690.75,511 Z M739.75,511 C738.784,511 738,511.672 738,512.5 C738,513.328 738.784,514 739.75,514 L750.25,514 C751.216,514 752,513.328 752,512.5 C752,511.672 751.216,511 750.25,511 L739.75,511 Z M707.217185,524 C706.768397,524 706.291413,524.155369 705.95071,524.49671 L698.516341,531.999144 C697.827886,532.688888 697.827886,533.792948 698.516341,534.482692 C699.204795,535.172436 700.306793,535.172436 700.995247,534.482692 L708.483659,527.034402 C709.172114,526.344658 709.172114,525.186453 708.483659,524.49671 C708.145306,524.155369 707.665972,524 707.217185,524 Z M733.782815,524 C733.334028,524 732.854694,524.155369 732.516341,524.49671 C731.827886,525.186453 731.827886,526.344658 732.516341,527.034402 L740.004753,534.482692 C740.693207,535.172436 741.795205,535.172436 742.483659,534.482692 C743.172114,533.792948 743.172114,532.688888 742.483659,531.999144 L735.04929,524.49671 C734.708587,524.155369 734.231603,524 733.782815,524 Z M720.5,530 C719.672,530 719,530.784 719,531.75 L719,542.25 C719,543.216 719.672,544 720.5,544 C721.328,544 722,543.216 722,542.25 L722,531.75 C722,530.784 721.328,530 720.5,530 Z" id="Page-1"></path>
        </g>
    </g>
</svg>